{
  "accessors": [
    {
      "bufferView": 2,
      "componentType": 5126,
      "count": 21645,
      "max": [
        1.8580375909805298,
        6.270331382751465,
        8.613799095153809
      ],
      "min": [
        -1.85650634765625,
        -6.2180023193359375,
        -0.017876174300909042
      ],
      "type": "VEC3"
    },
    {
      "bufferView": 2,
      "byteOffset": 259740,
      "componentType": 5126,
      "count": 21645,
      "max": [
        0.9999672770500183,
        0.9999945163726807,
        0.9984480142593384
      ],
      "min": [
        -0.9999908804893494,
        -0.9999659061431885,
        -1.0
      ],
      "type": "VEC3"
    },
    {
      "bufferView": 1,
      "componentType": 5126,
      "count": 21645,
      "max": [
        0.9894416332244873,
        0.9904653429985046
      ],
      "min": [
        0.009534597396850586,
        0.009534597396850586
      ],
      "type": "VEC2"
    },
    {
      "bufferView": 1,
      "byteOffset": 173160,
      "componentType": 5126,
      "count": 21645,
      "max": [
        0.9894416332244873,
        0.9904653429985046
      ],
      "min": [
        0.009534597396850586,
        0.009534597396850586
      ],
      "type": "VEC2"
    },
    {
      "bufferView": 0,
      "componentType": 5125,
      "count": 80454,
      "type": "SCALAR"
    },
    {
      "bufferView": 2,
      "byteOffset": 519480,
      "componentType": 5126,
      "count": 3126,
      "max": [
        0.8012732267379761,
        0.8340775370597839,
        0.3631897568702698
      ],
      "min": [
        -0.8156682252883911,
        -0.8319228291511536,
        -0.35792604088783264
      ],
      "type": "VEC3"
    },
    {
      "bufferView": 2,
      "byteOffset": 556992,
      "componentType": 5126,
      "count": 3126,
      "max": [
        0.9998981356620789,
        0.9994995594024658,
        0.9990525245666504
      ],
      "min": [
        -0.9998711943626404,
        -0.9999539256095886,
        -0.997823178768158
      ],
      "type": "VEC3"
    },
    {
      "bufferView": 1,
      "byteOffset": 346320,
      "componentType": 5126,
      "count": 3126,
      "max": [
        0.0,
        0.0
      ],
      "min": [
        0.0,
        0.0
      ],
      "type": "VEC2"
    },
    {
      "bufferView": 0,
      "byteOffset": 321816,
      "componentType": 5125,
      "count": 18684,
      "type": "SCALAR"
    },
    {
      "bufferView": 2,
      "byteOffset": 594504,
      "componentType": 5126,
      "count": 6305,
      "max": [
        4.786753177642822,
        21.04155731201172,
        69.23892211914063
      ],
      "min": [
        -31.956796646118164,
        -23.196701049804688,
        -1.1151094436645508
      ],
      "type": "VEC3"
    },
    {
      "bufferView": 2,
      "byteOffset": 670164,
      "componentType": 5126,
      "count": 6305,
      "max": [
        0.999985933303833,
        0.9999960064888,
        0.999571681022644
      ],
      "min": [
        -0.9999763369560242,
        -0.9999793171882629,
        -0.9993912577629089
      ],
      "type": "VEC3"
    },
    {
      "bufferView": 0,
      "byteOffset": 396552,
      "componentType": 5125,
      "count": 37050,
      "type": "SCALAR"
    },
    {
      "bufferView": 2,
      "byteOffset": 745824,
      "componentType": 5126,
      "count": 12610,
      "max": [
        70.96004486083984,
        67.57404327392578,
        15.386404991149902
      ],
      "min": [
        -72.79122161865234,
        -72.26949310302734,
        -11.6897611618042
      ],
      "type": "VEC3"
    },
    {
      "bufferView": 2,
      "byteOffset": 897144,
      "componentType": 5126,
      "count": 12610,
      "max": [
        0.9999761581420898,
        0.9999451041221619,
        0.9996879696846008
      ],
      "min": [
        -0.9998713731765747,
        -0.9997445344924927,
        -0.999584972858429
      ],
      "type": "VEC3"
    },
    {
      "bufferView": 0,
      "byteOffset": 544752,
      "componentType": 5125,
      "count": 74100,
      "type": "SCALAR"
    },
    {
      "bufferView": 2,
      "byteOffset": 1048464,
      "componentType": 5126,
      "count": 9758,
      "max": [
        3.1093626022338867,
        3.109455108642578,
        0.2888495624065399
      ],
      "min": [
        -3.0724830627441406,
        -3.1045587062835693,
        -0.2741817235946655
      ],
      "type": "VEC3"
    },
    {
      "bufferView": 2,
      "byteOffset": 1165560,
      "componentType": 5126,
      "count": 9758,
      "max": [
        1.0,
        0.9998002648353577,
        0.999975323677063
      ],
      "min": [
        -0.9981054663658142,
        -0.9996657371520996,
        -0.9999626874923706
      ],
      "type": "VEC3"
    },
    {
      "bufferView": 1,
      "byteOffset": 371328,
      "componentType": 5126,
      "count": 9758,
      "max": [
        0.0,
        0.0
      ],
      "min": [
        0.0,
        0.0
      ],
      "type": "VEC2"
    },
    {
      "bufferView": 0,
      "byteOffset": 841152,
      "componentType": 5125,
      "count": 58500,
      "type": "SCALAR"
    },
    {
      "bufferView": 2,
      "byteOffset": 1282656,
      "componentType": 5126,
      "count": 5795,
      "max": [
        1.5372918844223022,
        1.5665258169174194,
        1.2893497943878174
      ],
      "min": [
        -1.5388003587722778,
        -1.594350814819336,
        -1.2856611013412476
      ],
      "type": "VEC3"
    },
    {
      "bufferView": 2,
      "byteOffset": 1352196,
      "componentType": 5126,
      "count": 5795,
      "max": [
        0.9998635053634644,
        0.9998887777328491,
        0.9993865489959717
      ],
      "min": [
        -0.9999200105667114,
        -0.9999647736549377,
        -0.9997111558914185
      ],
      "type": "VEC3"
    },
    {
      "bufferView": 1,
      "byteOffset": 449392,
      "componentType": 5126,
      "count": 5795,
      "max": [
        0.0,
        0.0
      ],
      "min": [
        0.0,
        0.0
      ],
      "type": "VEC2"
    },
    {
      "bufferView": 0,
      "byteOffset": 1075152,
      "componentType": 5125,
      "count": 34716,
      "type": "SCALAR"
    },
    {
      "bufferView": 3,
      "componentType": 5126,
      "count": 492,
      "max": [
        10.416666984558105
      ],
      "min": [
        0.0416666679084301
      ],
      "type": "SCALAR"
    },
    {
      "bufferView": 5,
      "componentType": 5126,
      "count": 492,
      "max": [
        0.48809415102005005,
        0.6411861777305603,
        0.6657177805900574,
        0.6440008282661438
      ],
      "min": [
        0.37367305159568787,
        -0.618152916431427,
        0.5162398815155029,
        -0.4274870455265045
      ],
      "type": "VEC4"
    },
    {
      "bufferView": 3,
      "byteOffset": 1968,
      "componentType": 5126,
      "count": 362,
      "max": [
        10.416666984558105
      ],
      "min": [
        0.0416666679084301
      ],
      "type": "SCALAR"
    },
    {
      "bufferView": 4,
      "componentType": 5126,
      "count": 362,
      "max": [
        8.518040657043457,
        8.495960235595703,
        8.15118408203125
      ],
      "min": [
        8.15118408203125,
        8.15118408203125,
        8.15118408203125
      ],
      "type": "VEC3"
    },
    {
      "bufferView": 3,
      "byteOffset": 3416,
      "componentType": 5126,
      "count": 486,
      "max": [
        10.416666984558105
      ],
      "min": [
        0.0416666679084301
      ],
      "type": "SCALAR"
    },
    {
      "bufferView": 5,
      "byteOffset": 7872,
      "componentType": 5126,
      "count": 486,
      "max": [
        0.5068102478981018,
        0.7073614597320557,
        0.5094271898269653,
        0.7071280479431152
      ],
      "min": [
        -0.50030118227005,
        -0.49758270382881165,
        -0.5017342567443848,
        -0.4996238946914673
      ],
      "type": "VEC4"
    },
    {
      "bufferView": 3,
      "byteOffset": 5360,
      "componentType": 5126,
      "count": 489,
      "max": [
        10.416666984558105
      ],
      "min": [
        0.0416666679084301
      ],
      "type": "SCALAR"
    },
    {
      "bufferView": 5,
      "byteOffset": 15648,
      "componentType": 5126,
      "count": 489,
      "max": [
        0.9950113892555237,
        0.44076108932495117,
        0.20404751598834991,
        0.7444273829460144
      ],
      "min": [
        -0.8352928161621094,
        -0.16825485229492188,
        -0.44076094031333923,
        -0.49761611223220825
      ],
      "type": "VEC4"
    }
  ],
  "animations": [
    {
      "channels": [
        {
          "sampler": 0,
          "target": {
            "node": 6,
            "path": "rotation"
          }
        },
        {
          "sampler": 1,
          "target": {
            "node": 10,
            "path": "scale"
          }
        },
        {
          "sampler": 2,
          "target": {
            "node": 12,
            "path": "rotation"
          }
        },
        {
          "sampler": 3,
          "target": {
            "node": 14,
            "path": "rotation"
          }
        }
      ],
      "name": "Scene",
      "samplers": [
        {
          "input": 23,
          "interpolation": "LINEAR",
          "output": 24
        },
        {
          "input": 25,
          "interpolation": "LINEAR",
          "output": 26
        },
        {
          "input": 27,
          "interpolation": "LINEAR",
          "output": 28
        },
        {
          "input": 29,
          "interpolation": "LINEAR",
          "output": 30
        }
      ]
    }
  ],
  "asset": {
    "extras": {
      "author": "Chaitanya Krishnan (https://sketchfab.com/chaitanyak)",
      "license": "CC-BY-4.0 (http://creativecommons.org/licenses/by/4.0/)",
      "source": "https://sketchfab.com/3d-models/sculptjanuary2021-day-05-magic-gate-12d3c30bc917471fab7c333f427edd29",
      "title": "SculptJanuary2021 - Day 05 - Magic Gate"
    },
    "generator": "Sketchfab-14.61.0",
    "version": "2.0"
  },
  "bufferViews": [
    {
      "buffer": 0,
      "byteLength": 1214016,
      "name": "floatBufferViews",
      "target": 34963
    },
    {
      "buffer": 0,
      "byteLength": 495752,
      "byteOffset": 1214016,
      "byteStride": 8,
      "name": "floatBufferViews",
      "target": 34962
    },
    {
      "buffer": 0,
      "byteLength": 1421736,
      "byteOffset": 1709768,
      "byteStride": 12,
      "name": "floatBufferViews",
      "target": 34962
    },
    {
      "buffer": 0,
      "byteLength": 7316,
      "byteOffset": 3131504,
      "name": "floatBufferViews"
    },
    {
      "buffer": 0,
      "byteLength": 4344,
      "byteOffset": 3138820,
      "byteStride": 12,
      "name": "floatBufferViews"
    },
    {
      "buffer": 0,
      "byteLength": 23472,
      "byteOffset": 3143164,
      "byteStride": 16,
      "name": "floatBufferViews"
    }
  ],
  "buffers": [
    {
      "byteLength": 3166636,
      "uri": "scene.bin"
    }
  ],
  "extensionsUsed": [
    "KHR_materials_emissive_strength"
  ],
  "images": [
    {
      "uri": "textures/rock_baseColor.png"
    }
  ],
  "materials": [
    {
      "doubleSided": true,
      "emissiveFactor": [
        1.0,
        1.0,
        1.0
      ],
      "emissiveTexture": {
        "index": 0
      },
      "name": "rock",
      "pbrMetallicRoughness": {
        "baseColorTexture": {
          "index": 0
        },
        "metallicFactor": 0.0,
        "roughnessFactor": 0.1235537309703448
      }
    },
    {
      "doubleSided": true,
      "emissiveFactor": [
        1.0,
        1.0,
        1.0
      ],
      "extensions": {
        "KHR_materials_emissive_strength": {
          "emissiveStrength": 5.623480217690723
        }
      },
      "name": "glow",
      "pbrMetallicRoughness": {
        "baseColorFactor": [
          0.8,
          0.8,
          0.8,
          1.0
        ],
        "metallicFactor": 0.1235537309703448,
        "roughnessFactor": 0.726895880818595
      }
    }
  ],
  "meshes": [
    {
      "name": "gate_rock_0",
      "primitives": [
        {
          "attributes": {
            "NORMAL": 1,
            "POSITION": 0,
            "TEXCOORD_0": 2,
            "TEXCOORD_1": 3
          },
          "indices": 4,
          "material": 0,
          "mode": 4
        }
      ]
    },
    {
      "name": "ring.001_glow_0",
      "primitives": [
        {
          "attributes": {
            "NORMAL": 6,
            "POSITION": 5,
            "TEXCOORD_0": 7
          },
          "indices": 8,
          "material": 1,
          "mode": 4
        }
      ]
    },
    {
      "name": "Mball.076_glow_0",
      "primitives": [
        {
          "attributes": {
            "NORMAL": 10,
            "POSITION": 9
          },
          "indices": 11,
          "material": 1,
          "mode": 4
        }
      ]
    },
    {
      "name": "Mball.002_glow_0",
      "primitives": [
        {
          "attributes": {
            "NORMAL": 13,
            "POSITION": 12
          },
          "indices": 14,
          "material": 1,
          "mode": 4
        }
      ]
    },
    {
      "name": "ring.002_glow_0",
      "primitives": [
        {
          "attributes": {
            "NORMAL": 16,
            "POSITION": 15,
            "TEXCOORD_0": 17
          },
          "indices": 18,
          "material": 1,
          "mode": 4
        }
      ]
    },
    {
      "name": "ring.003_glow_0",
      "primitives": [
        {
          "attributes": {
            "NORMAL": 20,
            "POSITION": 19,
            "TEXCOORD_0": 21
          },
          "indices": 22,
          "material": 1,
          "mode": 4
        }
      ]
    }
  ],
  "nodes": [
    {
      "children": [
        1
      ],
      "matrix": [
        1.0,
        0.0,
        0.0,
        0.0,
        0.0,
        2.220446049250313e-16,
        -1.0,
        0.0,
        0.0,
        1.0,
        2.220446049250313e-16,
        0.0,
        0.0,
        0.0,
        0.0,
        1.0
      ],
      "name": "Sketchfab_model"
    },
    {
      "children": [
        2
      ],
      "matrix": [
        1.0,
        0.0,
        0.0,
        0.0,
        0.0,
        0.0,
        1.0,
        0.0,
        0.0,
        -1.0,
        0.0,
        0.0,
        0.0,
        0.0,
        0.0,
        1.0
      ],
      "name": "Day 05 - Magic Gate optim2.fbx"
    },
    {
      "children": [
        3
      ],
      "name": "Object_2"
    },
    {
      "children": [
        4,
        6,
        8,
        10,
        12,
        14
      ],
      "name": "RootNode"
    },
    {
      "children": [
        5
      ],
      "name": "gate",
      "rotation": [
        -0.7071068286895752,
        0.0,
        0.0,
        0.7071067094802856
      ],
      "scale": [
        100.0,
        100.0,
        100.0
      ],
      "translation": [
        0.0,
        0.0,
        0.6642341613769531
      ]
    },
    {
      "mesh": 0,
      "name": "gate_rock_0"
    },
    {
      "children": [
        7
      ],
      "name": "ring.001",
      "rotation": [
        0.4481097459793091,
        0.5343971848487854,
        0.5288451313972473,
        0.48367375135421753
      ],
      "scale": [
        100.00000762939453,
        100.0,
        99.99999237060547
      ],
      "translation": [
        -11.828303337097168,
        417.8068542480469,
        3.718876838684082
      ]
    },
    {
      "mesh": 1,
      "name": "ring.001_glow_0"
    },
    {
      "children": [
        9
      ],
      "name": "Mball.076",
      "rotation": [
        -0.7071067690849304,
        -0.0,
        0.0,
        0.7071068286895752
      ],
      "scale": [
        14.36215591430664,
        14.36215591430664,
        14.36215591430664
      ],
      "translation": [
        138.460205078125,
        14.604477882385254,
        -2.3179099559783936
      ]
    },
    {
      "mesh": 2,
      "name": "Mball.076_glow_0"
    },
    {
      "children": [
        11
      ],
      "name": "Mball.002",
      "rotation": [
        -0.2646847069263458,
        0.655699610710144,
        0.6556996703147888,
        0.26468467712402344
      ],
      "scale": [
        8.240171432495117,
        8.234091758728027,
        8.15118408203125
      ],
      "translation": [
        -57.76515197753906,
        100.02999114990234,
        0.7342510223388672
      ]
    },
    {
      "mesh": 3,
      "name": "Mball.002_glow_0"
    },
    {
      "children": [
        13
      ],
      "name": "ring.002",
      "rotation": [
        0.4298883378505707,
        0.5621904134750366,
        0.4319326877593994,
        0.559081494808197
      ],
      "scale": [
        100.0,
        99.99999237060547,
        100.0
      ],
      "translation": [
        -11.828303337097168,
        417.8068542480469,
        3.718876838684082
      ]
    },
    {
      "mesh": 4,
      "name": "ring.002_glow_0"
    },
    {
      "children": [
        15
      ],
      "name": "ring.003",
      "rotation": [
        0.8157010078430176,
        0.4001254439353943,
        0.1307092010974884,
        0.3967954218387604
      ],
      "scale": [
        100.0,
        100.0,
        100.0
      ],
      "translation": [
        -11.828303337097168,
        417.8068542480469,
        3.718876838684082
      ]
    },
    {
      "mesh": 5,
      "name": "ring.003_glow_0"
    }
  ],
  "samplers": [
    {
      "magFilter": 9729,
      "minFilter": 9987,
      "wrapS": 10497,
      "wrapT": 10497
    }
  ],
  "scene": 0,
  "scenes": [
    {
      "name": "Sketchfab_Scene",
      "nodes": [
        0
      ]
    }
  ],
  "textures": [
    {
      "sampler": 0,
      "source": 0
    }
  ]
}
